<?xml version="1.0" standalone="no"?>
<!DOCTYPE svg PUBLIC "-//W3C//DTD SVG 20010904//EN"
 "http://www.w3.org/TR/2001/REC-SVG-20010904/DTD/svg10.dtd">
<svg version="1.0" xmlns="http://www.w3.org/2000/svg"
 width="512.000000pt" height="512.000000pt" viewBox="0 0 512.000000 512.000000"
 preserveAspectRatio="xMidYMid meet">
<metadata>
Created by potrace 1.14, written by Peter Selinger 2001-2017
</metadata>
<g transform="translate(0.000000,512.000000) scale(0.100000,-0.100000)"
fill="#000000" stroke="none">
<path d="M2066 4923 c24 -109 45 -209 48 -223 3 -14 9 -40 15 -58 5 -18 10
-35 10 -37 -1 -3 2 -23 6 -45 5 -29 -2 -72 -30 -172 -60 -216 -90 -326 -125
-458 -18 -69 -38 -130 -44 -136 -6 -7 -56 -36 -111 -65 -149 -78 -227 -132
-302 -207 -137 -137 -223 -314 -249 -508 -4 -27 -7 -398 -8 -824 l-1 -775 -55
-27 c-55 -27 -154 -63 -201 -74 -13 -3 -78 -7 -145 -9 -151 -5 -218 10 -379
80 -180 79 -254 100 -407 111 l-88 7 0 -752 0 -751 2560 0 2560 0 0 751 0 752
-82 -6 c-73 -5 -133 -14 -203 -31 -47 -11 -86 -26 -180 -69 -184 -82 -222 -91
-390 -91 -115 0 -240 17 -251 35 -3 5 -13 9 -22 10 -9 0 -46 15 -82 32 l-65
33 -1 774 c-1 426 -4 797 -8 824 -24 170 -73 288 -175 422 -94 125 -174 187
-395 305 -98 52 -99 52 -119 134 -3 11 -26 94 -52 185 -25 91 -48 172 -50 180
-1 8 -20 75 -40 148 l-38 133 38 177 c21 97 50 232 65 300 l27 122 -537 0
-537 0 43 -197z"/>
</g>
</svg>
